<?xml version="1.0" encoding="utf-8"?>
<!-- Generator: Adobe Illustrator 19.0.0, SVG Export Plug-In . SVG Version: 6.00 Build 0)  -->
<svg version="1.1" id="Layer_1" xmlns="http://www.w3.org/2000/svg" xmlns:xlink="http://www.w3.org/1999/xlink" x="0px" y="0px"
	 viewBox="0 0 300 300" style="enable-background:new 0 0 300 300;" xml:space="preserve">
<g>
	<path d="M149.9,6.6c78.7-0.1,143.6,63.7,143.6,143.7c0,79.8-64.7,143.9-144.1,143.6C69.9,293.6,5.9,229,6.2,149.6
		C6.5,70.3,70.9,6.5,149.9,6.6z M201.3,241.7c11.9-12.3,23.7-24.5,35.5-36.7c0.2-0.2,0.3-0.4,0.5-0.6c-8.2-8.5-16.4-17-24.6-25.5
		c-8.2-8.5-16.5-17.1-24.8-25.7c1-1.1,2-2.1,3-3.1c1-1,1.9-2,2.9-3c1-1,1.9-2,2.9-3c1-1,2-2,2.9-3c1-1,1.9-2,2.9-3c1-1,2-2,2.9-3
		c1-1,2-2,2.9-3c1-1,1.9-2,2.9-3c0.9-1,1.9-1.9,2.8-2.9c1-1,2-2,2.9-3c1-1,1.9-2,2.9-3c1-1,2-2,2.9-3c1-1,2-2,2.9-3c1-1,2-2,2.9-3
		c1-1,2-2,2.9-3c1-1,1.9-2,2.9-3c1-1,2-2,2.9-3c1-1,2-1.9,2.8-3.1c-1-1.3-35.1-36.6-36-37.2c-0.5,0.3-0.9,0.8-1.2,1.2
		C191.4,74.7,179.7,86.9,168,99c-5,5.2-10,10.4-15,15.6c-0.4,0.4-0.6,0.8-1.3,1c-0.4-0.4-0.8-0.8-1.2-1.2
		c-12.6-13.1-25.2-26.1-37.8-39.2c-4.2-4.4-8.4-8.7-12.6-13.1c-0.4-0.4-0.6-0.9-1.3-1c-0.3,0.3-0.6,0.7-1,1c-2.4,2.5-4.8,5-7.3,7.5
		C81.6,78.9,72.8,88,63.9,97.2c-0.4,0.4-0.8,0.7-1,1.2c0.4,0.4,0.8,0.8,1.1,1.2c5.7,5.9,11.4,11.8,17.1,17.7
		c11.2,11.6,22.3,23.1,33.5,34.7c0.4,0.4,0.8,0.7,1,1.3c-16.5,17.1-33,34.2-49.6,51.4c0.4,0.4,0.7,0.8,1,1.1c2,2.1,4,4.2,6.1,6.3
		c9.3,9.6,18.6,19.2,27.9,28.8c0.4,0.4,0.7,0.8,1.2,1.1c0.4-0.4,0.8-0.8,1.2-1.2c7.7-8,15.5-16,23.2-24c8-8.3,16.1-16.7,24.1-25
		c0.4-0.4,0.7-0.8,1.2-1.1c1.1,0.9,2,2,3,3c1,1,2,2,2.9,3c0.9,1,1.9,2,2.8,2.9c1,1,2,2,2.9,3c1,1,2,2,2.9,3c1,1,1.9,2,2.9,3
		c0.9,1,1.9,1.9,2.8,2.9c1,1,2,2,2.9,3c1,1,1.9,2,2.9,3c1,1,2,2,2.9,3c0.9,1,1.9,2,2.8,2.9c1,1,2,2,2.9,3c1,1,2,2,2.9,3
		c1,1,1.9,2,2.9,3c0.9,1,1.9,1.9,2.8,2.9c1,1,1.9,2,2.9,3C199.3,239.7,200.2,240.8,201.3,241.7z"/>
</g>
</svg>
