<?xml version="1.0" encoding="utf-8"?>
<!-- Generator: Adobe Illustrator 19.0.0, SVG Export Plug-In . SVG Version: 6.00 Build 0)  -->
<svg version="1.1" id="Layer_1" xmlns="http://www.w3.org/2000/svg" xmlns:xlink="http://www.w3.org/1999/xlink" x="0px" y="0px"
	 viewBox="0 0 300 300" style="enable-background:new 0 0 300 300;" xml:space="preserve" fill="#0743f8">
<g id="XMLID_14_">
	<path id="XMLID_20_" d="M23.4,268.5c7.1,0,13.5,0,20,0c12.9-0.1,21.7-8.4,21.6-20.4c-0.1-11.6-8.9-19.8-21.6-19.8
		c-6.5,0-13,0-19.7,0c0-3,0-5.6,0-9c7.1,0,14.3,0.1,21.5,0c9-0.2,16.1-5.5,18.9-13.9c2.6-7.7,0.5-16.8-6.4-21.5
		c-3.8-2.6-8.7-4.1-13.3-4.6c-6.8-0.8-13.7-0.2-20.8-0.2c0-3.1,0-5.6,0-8.9c6.4,0,12.9,0,19.3,0c13.1,0,22-8.1,22-20
		c0-12-8.7-20.2-21.7-20.3c-6.5,0-12.9,0-19.6,0c0-3.1,0-5.7,0-8.9c6.7,0,13.4,0,20,0c12.6-0.1,21.4-8.3,21.4-20
		c0-11.7-8.7-20.1-21.3-20.2c-6.5-0.1-13,0-19.9,0c0-2.9,0-5.6,0-8.9c6.6,0,13.3,0,19.9,0C56.3,71.7,65,63.4,65,51.6
		c0-11.7-8.8-20-21.4-20.1c-6.5-0.1-13,0-20,0c0-5.3-0.6-10.3,0.1-15.1c1-6.9,7.9-11.7,15.7-11.7c25,0,49.9,0,74.9,0
		c44,0,87.9,0,131.9,0c15,0,20.1,4.8,20.6,19.7c0,0.9,0.2,1.8,0.3,2.7c0.8,0.2,1.3,0.5,1.8,0.5c14.5-1.1,21.7,8,20.9,22.3
		c-0.3,6.1,0,12.3-0.2,18.4c-0.4,10.8-6.8,17-17.6,17.8c-1.7,0.1-3.4,1.1-5.2,1.7c1.6,0.6,3.2,1.8,4.9,1.9
		c10.7,0.5,17.4,6.7,17.8,17.5c0.3,7.8,0.3,15.7,0,23.5c-0.4,11-6.7,17.1-17.6,17.4c-1.1,0-2.3-0.2-3.3,0.2
		c-0.8,0.3-1.5,1.4-1.7,2.2c-0.1,0.5,1,1.2,1.6,1.8c0.2,0.2,0.7,0,1.1,0.1c16.5,2.1,20.1,6.2,20.1,22.9c0,5.6,0.1,11.2-0.1,16.8
		c-0.4,12.1-6.7,18.3-18.9,18.6c-1.3,0-2.5,0.2-3.8,0.3c-0.2,0.5-0.4,0.9-0.5,1.4c1.2,0.6,2.5,1.9,3.6,1.8
		c12.9-0.4,20.2,7.9,19.7,21.5c-0.2,6,0.1,11.9-0.1,17.9c-0.3,12.6-6.4,18.7-18.9,19.2c-1.1,0-2.2,0.1-4.1,0.2c0,2.3,0.1,4.5,0,6.6
		c-0.6,10.1-6.8,16-16.9,16c-31.5,0-63,0-94.5,0c-38,0-76,0-114,0c-12.2,0-18-5.9-18-18.1C23.4,274.6,23.4,272,23.4,268.5z
		 M90,215.3c37.1,0,73.5,0,110.2,0c0-8.1-0.2-15.7,0.1-23.3c0.2-6.2-1.6-11.9-6.5-15.3c-6.9-4.8-14.2-9.6-22.1-12.2
		c-24.5-8.3-48.3-5.8-70.5,7.9c-5.7,3.5-10.4,8.5-10.9,15.4C89.5,196.7,90,205.8,90,215.3z M111.8,117.7c0,18.7,14.5,33.4,32.9,33.5
		c18.9,0,33.8-14.7,33.7-33.4c-0.1-18.3-15.1-33.4-33.3-33.4C126.7,84.3,111.8,99.2,111.8,117.7z M267.2,73.5
		c9.2,1.1,11.1-0.4,11.2-9.1c0.1-5.2,0.1-10.4,0-15.6c-0.1-8.5-2.2-10.2-11.2-8.9C267.2,50.9,267.2,62,267.2,73.5z M267.3,102.1
		c0,11.6,0,22.8,0,34c9.2,0.8,11-0.8,11.1-9.5c0.1-5,0-10,0-15C278.3,102.5,276.9,101.3,267.3,102.1z M267.2,197.9
		c9.7,0.9,11.2-0.4,11.2-9.3c0.1-5.2,0.1-10.4,0-15.6c-0.1-8.5-2.7-10.5-11.2-8.6C267.2,175.4,267.2,186.5,267.2,197.9z
		 M267.2,260.4c9.5,0.7,11.2-0.8,11.3-9.6c0-5.2,0.1-10.4,0-15.6c-0.1-8.4-2.6-10.2-11.2-8.3C267.2,237.9,267.2,249,267.2,260.4z"/>
	<path id="XMLID_5_" d="M32,61.6c-4.1,0-8.2,0.2-12.3,0c-5.7-0.3-9.6-4.2-9.7-9.5c-0.2-5.6,3.5-10.1,9.4-10.3
		c8.6-0.4,17.1-0.3,25.7,0c6,0.2,9.8,4.5,9.8,10c-0.1,5.5-4.1,9.5-10,9.8C40.6,61.8,36.3,61.6,32,61.6z"/>
	<path id="XMLID_4_" d="M32.1,160c-3.9,0-7.8,0.1-11.7,0c-6.3-0.3-10.4-4.3-10.3-10c0-5.5,4-9.7,10-9.8c8.4-0.2,16.8-0.3,25.1,0
		c5.9,0.2,9.8,4.5,9.8,10c0,5.5-4,9.5-10,9.8C40.6,160.1,36.3,160,32.1,160z"/>
	<path id="XMLID_3_" d="M32.4,209.2c-4.1,0-8.2,0.2-12.3,0c-6.3-0.3-10.2-4.5-10.1-10.3c0.1-5.5,4.1-9.5,10.2-9.6
		c8.2-0.2,16.4-0.2,24.6,0c6,0.2,10,4.2,10.2,9.7c0.1,5.7-3.9,9.8-10.2,10.2c-0.4,0-0.7,0-1.1,0C39.9,209.2,36.1,209.2,32.4,209.2z"
		/>
	<path id="XMLID_2_" d="M33.1,238.4c3.7,0,7.5-0.1,11.2,0c6.4,0.2,10.6,4.1,10.7,9.7c0.1,5.7-4,10-10.3,10.1
		c-8.2,0.2-16.4,0.2-24.6,0c-6.3-0.2-10.2-4.5-10.1-10.3c0.1-5.5,4.1-9.3,10.2-9.6C24.5,238.2,28.8,238.4,33.1,238.4z"/>
	<path id="XMLID_1_" d="M32.5,110.8c-4.1,0-8.2,0.1-12.3,0c-6.3-0.3-10.3-4.4-10.2-10.2c0.1-5.5,4-9.5,10.1-9.7
		c8.2-0.2,16.4-0.2,24.6,0c6.3,0.2,10.3,4.4,10.2,10.2c-0.1,5.5-4.1,9.4-10.1,9.7C40.7,111,36.6,110.8,32.5,110.8z"/>
</g>
</svg>
